<?xml version="1.0" encoding="utf-8"?>
<svg xmlns="http://www.w3.org/2000/svg" xmlns:xlink="http://www.w3.org/1999/xlink" width="576" height="384" viewBox="0 0 576 384">
<defs>
  <clipPath id="clip2300">
    <rect x="0" y="0" width="576" height="384"/>
  </clipPath>
</defs>
<polygon clip-path="url(#clip2300)" points="
0,384 576,384 576,0 0,0 
  " fill="#ffffff" fill-opacity="1"/>
<defs>
  <clipPath id="clip2301">
    <rect x="115" y="0" width="404" height="384"/>
  </clipPath>
</defs>
<polygon clip-path="url(#clip2300)" points="
35.5169,360.341 556.315,360.341 556.315,11.811 35.5169,11.811 
  " fill="#ffffff" fill-opacity="1"/>
<defs>
  <clipPath id="clip2302">
    <rect x="35" y="11" width="522" height="350"/>
  </clipPath>
</defs>
<polyline clip-path="url(#clip2302)" style="stroke:#000000; stroke-width:0.5; stroke-opacity:0.1; fill:none" points="
  104.847,360.341 104.847,11.811 
  "/>
<polyline clip-path="url(#clip2302)" style="stroke:#000000; stroke-width:0.5; stroke-opacity:0.1; fill:none" points="
  214.029,360.341 214.029,11.811 
  "/>
<polyline clip-path="url(#clip2302)" style="stroke:#000000; stroke-width:0.5; stroke-opacity:0.1; fill:none" points="
  323.211,360.341 323.211,11.811 
  "/>
<polyline clip-path="url(#clip2302)" style="stroke:#000000; stroke-width:0.5; stroke-opacity:0.1; fill:none" points="
  432.393,360.341 432.393,11.811 
  "/>
<polyline clip-path="url(#clip2302)" style="stroke:#000000; stroke-width:0.5; stroke-opacity:0.1; fill:none" points="
  541.575,360.341 541.575,11.811 
  "/>
<polyline clip-path="url(#clip2302)" style="stroke:#000000; stroke-width:0.5; stroke-opacity:0.1; fill:none" points="
  35.5169,330.268 556.315,330.268 
  "/>
<polyline clip-path="url(#clip2302)" style="stroke:#000000; stroke-width:0.5; stroke-opacity:0.1; fill:none" points="
  35.5169,249.623 556.315,249.623 
  "/>
<polyline clip-path="url(#clip2302)" style="stroke:#000000; stroke-width:0.5; stroke-opacity:0.1; fill:none" points="
  35.5169,168.978 556.315,168.978 
  "/>
<polyline clip-path="url(#clip2302)" style="stroke:#000000; stroke-width:0.5; stroke-opacity:0.1; fill:none" points="
  35.5169,88.3333 556.315,88.3333 
  "/>
<polyline clip-path="url(#clip2300)" style="stroke:#000000; stroke-width:1; stroke-opacity:1; fill:none" points="
  35.5169,360.341 556.315,360.341 
  "/>
<polyline clip-path="url(#clip2300)" style="stroke:#000000; stroke-width:1; stroke-opacity:1; fill:none" points="
  35.5169,360.341 35.5169,11.811 
  "/>
<polyline clip-path="url(#clip2300)" style="stroke:#000000; stroke-width:1; stroke-opacity:1; fill:none" points="
  104.847,360.341 104.847,355.113 
  "/>
<polyline clip-path="url(#clip2300)" style="stroke:#000000; stroke-width:1; stroke-opacity:1; fill:none" points="
  214.029,360.341 214.029,355.113 
  "/>
<polyline clip-path="url(#clip2300)" style="stroke:#000000; stroke-width:1; stroke-opacity:1; fill:none" points="
  323.211,360.341 323.211,355.113 
  "/>
<polyline clip-path="url(#clip2300)" style="stroke:#000000; stroke-width:1; stroke-opacity:1; fill:none" points="
  432.393,360.341 432.393,355.113 
  "/>
<polyline clip-path="url(#clip2300)" style="stroke:#000000; stroke-width:1; stroke-opacity:1; fill:none" points="
  541.575,360.341 541.575,355.113 
  "/>
<polyline clip-path="url(#clip2300)" style="stroke:#000000; stroke-width:1; stroke-opacity:1; fill:none" points="
  35.5169,330.268 43.3289,330.268 
  "/>
<polyline clip-path="url(#clip2300)" style="stroke:#000000; stroke-width:1; stroke-opacity:1; fill:none" points="
  35.5169,249.623 43.3289,249.623 
  "/>
<polyline clip-path="url(#clip2300)" style="stroke:#000000; stroke-width:1; stroke-opacity:1; fill:none" points="
  35.5169,168.978 43.3289,168.978 
  "/>
<polyline clip-path="url(#clip2300)" style="stroke:#000000; stroke-width:1; stroke-opacity:1; fill:none" points="
  35.5169,88.3333 43.3289,88.3333 
  "/>
<g clip-path="url(#clip2300)">
<text style="fill:#000000; fill-opacity:1; font-family:Arial,Helvetica Neue,Helvetica,sans-serif; font-size:12; text-anchor:middle;" transform="rotate(0, 104.847, 374.021)" x="104.847" y="374.021">20</text>
</g>
<g clip-path="url(#clip2300)">
<text style="fill:#000000; fill-opacity:1; font-family:Arial,Helvetica Neue,Helvetica,sans-serif; font-size:12; text-anchor:middle;" transform="rotate(0, 214.029, 374.021)" x="214.029" y="374.021">40</text>
</g>
<g clip-path="url(#clip2300)">
<text style="fill:#000000; fill-opacity:1; font-family:Arial,Helvetica Neue,Helvetica,sans-serif; font-size:12; text-anchor:middle;" transform="rotate(0, 323.211, 374.021)" x="323.211" y="374.021">60</text>
</g>
<g clip-path="url(#clip2300)">
<text style="fill:#000000; fill-opacity:1; font-family:Arial,Helvetica Neue,Helvetica,sans-serif; font-size:12; text-anchor:middle;" transform="rotate(0, 432.393, 374.021)" x="432.393" y="374.021">80</text>
</g>
<g clip-path="url(#clip2300)">
<text style="fill:#000000; fill-opacity:1; font-family:Arial,Helvetica Neue,Helvetica,sans-serif; font-size:12; text-anchor:middle;" transform="rotate(0, 541.575, 374.021)" x="541.575" y="374.021">100</text>
</g>
<g clip-path="url(#clip2300)">
<text style="fill:#000000; fill-opacity:1; font-family:Arial,Helvetica Neue,Helvetica,sans-serif; font-size:12; text-anchor:end;" transform="rotate(0, 29.7569, 334.768)" x="29.7569" y="334.768">0</text>
</g>
<g clip-path="url(#clip2300)">
<text style="fill:#000000; fill-opacity:1; font-family:Arial,Helvetica Neue,Helvetica,sans-serif; font-size:12; text-anchor:end;" transform="rotate(0, 29.7569, 254.123)" x="29.7569" y="254.123">100</text>
</g>
<g clip-path="url(#clip2300)">
<text style="fill:#000000; fill-opacity:1; font-family:Arial,Helvetica Neue,Helvetica,sans-serif; font-size:12; text-anchor:end;" transform="rotate(0, 29.7569, 173.478)" x="29.7569" y="173.478">200</text>
</g>
<g clip-path="url(#clip2300)">
<text style="fill:#000000; fill-opacity:1; font-family:Arial,Helvetica Neue,Helvetica,sans-serif; font-size:12; text-anchor:end;" transform="rotate(0, 29.7569, 92.8333)" x="29.7569" y="92.8333">300</text>
</g>
<circle clip-path="url(#clip2302)" style="fill:#000000; stroke:none; fill-opacity:1" cx="50.2565" cy="21.6751" r="4"/>
<circle clip-path="url(#clip2302)" style="fill:#009af9; stroke:none; fill-opacity:1" cx="50.2565" cy="21.6751" r="3"/>
<circle clip-path="url(#clip2302)" style="fill:#000000; stroke:none; fill-opacity:1" cx="104.847" cy="119.394" r="4"/>
<circle clip-path="url(#clip2302)" style="fill:#009af9; stroke:none; fill-opacity:1" cx="104.847" cy="119.394" r="3"/>
<circle clip-path="url(#clip2302)" style="fill:#000000; stroke:none; fill-opacity:1" cx="159.438" cy="183.443" r="4"/>
<circle clip-path="url(#clip2302)" style="fill:#009af9; stroke:none; fill-opacity:1" cx="159.438" cy="183.443" r="3"/>
<circle clip-path="url(#clip2302)" style="fill:#000000; stroke:none; fill-opacity:1" cx="214.029" cy="226.007" r="4"/>
<circle clip-path="url(#clip2302)" style="fill:#009af9; stroke:none; fill-opacity:1" cx="214.029" cy="226.007" r="3"/>
<circle clip-path="url(#clip2302)" style="fill:#000000; stroke:none; fill-opacity:1" cx="268.62" cy="254.361" r="4"/>
<circle clip-path="url(#clip2302)" style="fill:#009af9; stroke:none; fill-opacity:1" cx="268.62" cy="254.361" r="3"/>
<circle clip-path="url(#clip2302)" style="fill:#000000; stroke:none; fill-opacity:1" cx="323.211" cy="273.271" r="4"/>
<circle clip-path="url(#clip2302)" style="fill:#009af9; stroke:none; fill-opacity:1" cx="323.211" cy="273.271" r="3"/>
<circle clip-path="url(#clip2302)" style="fill:#000000; stroke:none; fill-opacity:1" cx="377.802" cy="285.897" r="4"/>
<circle clip-path="url(#clip2302)" style="fill:#009af9; stroke:none; fill-opacity:1" cx="377.802" cy="285.897" r="3"/>
<circle clip-path="url(#clip2302)" style="fill:#000000; stroke:none; fill-opacity:1" cx="432.393" cy="294.338" r="4"/>
<circle clip-path="url(#clip2302)" style="fill:#009af9; stroke:none; fill-opacity:1" cx="432.393" cy="294.338" r="3"/>
<circle clip-path="url(#clip2302)" style="fill:#000000; stroke:none; fill-opacity:1" cx="486.984" cy="299.991" r="4"/>
<circle clip-path="url(#clip2302)" style="fill:#009af9; stroke:none; fill-opacity:1" cx="486.984" cy="299.991" r="3"/>
<circle clip-path="url(#clip2302)" style="fill:#000000; stroke:none; fill-opacity:1" cx="541.575" cy="303.785" r="4"/>
<circle clip-path="url(#clip2302)" style="fill:#009af9; stroke:none; fill-opacity:1" cx="541.575" cy="303.785" r="3"/>
<polyline clip-path="url(#clip2302)" style="stroke:#009af9; stroke-width:1; stroke-opacity:1; fill:none" points="
  50.2565,101.956 541.575,350.477 
  "/>
<polygon clip-path="url(#clip2300)" points="
468.919,61.491 539.035,61.491 539.035,31.251 468.919,31.251 
  " fill="#ffffff" fill-opacity="1"/>
<polyline clip-path="url(#clip2300)" style="stroke:#000000; stroke-width:1; stroke-opacity:1; fill:none" points="
  468.919,61.491 539.035,61.491 539.035,31.251 468.919,31.251 468.919,61.491 
  "/>
<circle clip-path="url(#clip2300)" style="fill:#000000; stroke:none; fill-opacity:1" cx="494.839" cy="46.371" r="6"/>
<circle clip-path="url(#clip2300)" style="fill:#009af9; stroke:none; fill-opacity:1" cx="494.839" cy="46.371" r="5"/>
<g clip-path="url(#clip2300)">
<text style="fill:#000000; fill-opacity:1; font-family:Arial,Helvetica Neue,Helvetica,sans-serif; font-size:12; text-anchor:start;" transform="rotate(0, 514.999, 50.871)" x="514.999" y="50.871">y1</text>
</g>
</svg>
