<?xml version="1.0" encoding="utf-8"?>
<svg xmlns="http://www.w3.org/2000/svg" xmlns:xlink="http://www.w3.org/1999/xlink" width="576" height="384" viewBox="0 0 576 384">
<defs>
  <clipPath id="clip0400">
    <rect x="0" y="0" width="576" height="384"/>
  </clipPath>
</defs>
<polygon clip-path="url(#clip0400)" points="
0,384 576,384 576,0 0,0 
  " fill="#ffffff" fill-opacity="1"/>
<defs>
  <clipPath id="clip0401">
    <rect x="115" y="0" width="404" height="384"/>
  </clipPath>
</defs>
<polygon clip-path="url(#clip0400)" points="
47.9701,344.065 556.315,344.065 556.315,11.811 47.9701,11.811 
  " fill="#ffffff" fill-opacity="1"/>
<defs>
  <clipPath id="clip0402">
    <rect x="47" y="11" width="509" height="333"/>
  </clipPath>
</defs>
<polyline clip-path="url(#clip0402)" style="stroke:#000000; stroke-width:0.5; stroke-opacity:0.1; fill:none" points="
  62.3573,344.065 62.3573,11.811 
  "/>
<polyline clip-path="url(#clip0402)" style="stroke:#000000; stroke-width:0.5; stroke-opacity:0.1; fill:none" points="
  168.928,344.065 168.928,11.811 
  "/>
<polyline clip-path="url(#clip0402)" style="stroke:#000000; stroke-width:0.5; stroke-opacity:0.1; fill:none" points="
  275.5,344.065 275.5,11.811 
  "/>
<polyline clip-path="url(#clip0402)" style="stroke:#000000; stroke-width:0.5; stroke-opacity:0.1; fill:none" points="
  382.071,344.065 382.071,11.811 
  "/>
<polyline clip-path="url(#clip0402)" style="stroke:#000000; stroke-width:0.5; stroke-opacity:0.1; fill:none" points="
  488.642,344.065 488.642,11.811 
  "/>
<polyline clip-path="url(#clip0402)" style="stroke:#000000; stroke-width:0.5; stroke-opacity:0.1; fill:none" points="
  47.9701,344.065 556.315,344.065 
  "/>
<polyline clip-path="url(#clip0402)" style="stroke:#000000; stroke-width:0.5; stroke-opacity:0.1; fill:none" points="
  47.9701,277.615 556.315,277.615 
  "/>
<polyline clip-path="url(#clip0402)" style="stroke:#000000; stroke-width:0.5; stroke-opacity:0.1; fill:none" points="
  47.9701,211.164 556.315,211.164 
  "/>
<polyline clip-path="url(#clip0402)" style="stroke:#000000; stroke-width:0.5; stroke-opacity:0.1; fill:none" points="
  47.9701,144.713 556.315,144.713 
  "/>
<polyline clip-path="url(#clip0402)" style="stroke:#000000; stroke-width:0.5; stroke-opacity:0.1; fill:none" points="
  47.9701,78.2619 556.315,78.2619 
  "/>
<polyline clip-path="url(#clip0402)" style="stroke:#000000; stroke-width:0.5; stroke-opacity:0.1; fill:none" points="
  47.9701,11.811 556.315,11.811 
  "/>
<polyline clip-path="url(#clip0400)" style="stroke:#000000; stroke-width:1; stroke-opacity:1; fill:none" points="
  47.9701,344.065 556.315,344.065 
  "/>
<polyline clip-path="url(#clip0400)" style="stroke:#000000; stroke-width:1; stroke-opacity:1; fill:none" points="
  47.9701,344.065 47.9701,11.811 
  "/>
<polyline clip-path="url(#clip0400)" style="stroke:#000000; stroke-width:1; stroke-opacity:1; fill:none" points="
  62.3573,344.065 62.3573,339.082 
  "/>
<polyline clip-path="url(#clip0400)" style="stroke:#000000; stroke-width:1; stroke-opacity:1; fill:none" points="
  168.928,344.065 168.928,339.082 
  "/>
<polyline clip-path="url(#clip0400)" style="stroke:#000000; stroke-width:1; stroke-opacity:1; fill:none" points="
  275.5,344.065 275.5,339.082 
  "/>
<polyline clip-path="url(#clip0400)" style="stroke:#000000; stroke-width:1; stroke-opacity:1; fill:none" points="
  382.071,344.065 382.071,339.082 
  "/>
<polyline clip-path="url(#clip0400)" style="stroke:#000000; stroke-width:1; stroke-opacity:1; fill:none" points="
  488.642,344.065 488.642,339.082 
  "/>
<polyline clip-path="url(#clip0400)" style="stroke:#000000; stroke-width:1; stroke-opacity:1; fill:none" points="
  47.9701,344.065 55.5953,344.065 
  "/>
<polyline clip-path="url(#clip0400)" style="stroke:#000000; stroke-width:1; stroke-opacity:1; fill:none" points="
  47.9701,277.615 55.5953,277.615 
  "/>
<polyline clip-path="url(#clip0400)" style="stroke:#000000; stroke-width:1; stroke-opacity:1; fill:none" points="
  47.9701,211.164 55.5953,211.164 
  "/>
<polyline clip-path="url(#clip0400)" style="stroke:#000000; stroke-width:1; stroke-opacity:1; fill:none" points="
  47.9701,144.713 55.5953,144.713 
  "/>
<polyline clip-path="url(#clip0400)" style="stroke:#000000; stroke-width:1; stroke-opacity:1; fill:none" points="
  47.9701,78.2619 55.5953,78.2619 
  "/>
<polyline clip-path="url(#clip0400)" style="stroke:#000000; stroke-width:1; stroke-opacity:1; fill:none" points="
  47.9701,11.811 55.5953,11.811 
  "/>
<g clip-path="url(#clip0400)">
<text style="fill:#000000; fill-opacity:1; font-family:Arial,Helvetica Neue,Helvetica,sans-serif; font-size:12; text-anchor:middle;" transform="rotate(0, 62.3573, 357.745)" x="62.3573" y="357.745">0</text>
</g>
<g clip-path="url(#clip0400)">
<text style="fill:#000000; fill-opacity:1; font-family:Arial,Helvetica Neue,Helvetica,sans-serif; font-size:12; text-anchor:middle;" transform="rotate(0, 168.928, 357.745)" x="168.928" y="357.745">2</text>
</g>
<g clip-path="url(#clip0400)">
<text style="fill:#000000; fill-opacity:1; font-family:Arial,Helvetica Neue,Helvetica,sans-serif; font-size:12; text-anchor:middle;" transform="rotate(0, 275.5, 357.745)" x="275.5" y="357.745">4</text>
</g>
<g clip-path="url(#clip0400)">
<text style="fill:#000000; fill-opacity:1; font-family:Arial,Helvetica Neue,Helvetica,sans-serif; font-size:12; text-anchor:middle;" transform="rotate(0, 382.071, 357.745)" x="382.071" y="357.745">6</text>
</g>
<g clip-path="url(#clip0400)">
<text style="fill:#000000; fill-opacity:1; font-family:Arial,Helvetica Neue,Helvetica,sans-serif; font-size:12; text-anchor:middle;" transform="rotate(0, 488.642, 357.745)" x="488.642" y="357.745">8</text>
</g>
<g clip-path="url(#clip0400)">
<text style="fill:#000000; fill-opacity:1; font-family:Arial,Helvetica Neue,Helvetica,sans-serif; font-size:12; text-anchor:end;" transform="rotate(0, 42.2101, 348.565)" x="42.2101" y="348.565">0.0</text>
</g>
<g clip-path="url(#clip0400)">
<text style="fill:#000000; fill-opacity:1; font-family:Arial,Helvetica Neue,Helvetica,sans-serif; font-size:12; text-anchor:end;" transform="rotate(0, 42.2101, 282.115)" x="42.2101" y="282.115">0.2</text>
</g>
<g clip-path="url(#clip0400)">
<text style="fill:#000000; fill-opacity:1; font-family:Arial,Helvetica Neue,Helvetica,sans-serif; font-size:12; text-anchor:end;" transform="rotate(0, 42.2101, 215.664)" x="42.2101" y="215.664">0.4</text>
</g>
<g clip-path="url(#clip0400)">
<text style="fill:#000000; fill-opacity:1; font-family:Arial,Helvetica Neue,Helvetica,sans-serif; font-size:12; text-anchor:end;" transform="rotate(0, 42.2101, 149.213)" x="42.2101" y="149.213">0.6</text>
</g>
<g clip-path="url(#clip0400)">
<text style="fill:#000000; fill-opacity:1; font-family:Arial,Helvetica Neue,Helvetica,sans-serif; font-size:12; text-anchor:end;" transform="rotate(0, 42.2101, 82.7619)" x="42.2101" y="82.7619">0.8</text>
</g>
<g clip-path="url(#clip0400)">
<text style="fill:#000000; fill-opacity:1; font-family:Arial,Helvetica Neue,Helvetica,sans-serif; font-size:12; text-anchor:end;" transform="rotate(0, 42.2101, 16.311)" x="42.2101" y="16.311">1.0</text>
</g>
<g clip-path="url(#clip0400)">
<text style="fill:#000000; fill-opacity:1; font-family:Arial,Helvetica Neue,Helvetica,sans-serif; font-size:16; text-anchor:middle;" transform="rotate(0, 302.143, 381.6)" x="302.143" y="381.6">Wrongly Predicted class</text>
</g>
<g clip-path="url(#clip0400)">
<text style="fill:#000000; fill-opacity:1; font-family:Arial,Helvetica Neue,Helvetica,sans-serif; font-size:16; text-anchor:middle;" transform="rotate(-90, 14.4, 177.938)" x="14.4" y="177.938">Likelihood</text>
</g>
<circle clip-path="url(#clip0402)" style="fill:#000000; stroke:none; fill-opacity:1" cx="541.928" cy="60.6129" r="4"/>
<circle clip-path="url(#clip0402)" style="fill:#009af9; stroke:none; fill-opacity:1" cx="541.928" cy="60.6129" r="3"/>
<circle clip-path="url(#clip0402)" style="fill:#000000; stroke:none; fill-opacity:1" cx="382.071" cy="111.304" r="4"/>
<circle clip-path="url(#clip0402)" style="fill:#009af9; stroke:none; fill-opacity:1" cx="382.071" cy="111.304" r="3"/>
<circle clip-path="url(#clip0402)" style="fill:#000000; stroke:none; fill-opacity:1" cx="62.3573" cy="158.318" r="4"/>
<circle clip-path="url(#clip0402)" style="fill:#009af9; stroke:none; fill-opacity:1" cx="62.3573" cy="158.318" r="3"/>
<circle clip-path="url(#clip0402)" style="fill:#000000; stroke:none; fill-opacity:1" cx="541.928" cy="177.113" r="4"/>
<circle clip-path="url(#clip0402)" style="fill:#009af9; stroke:none; fill-opacity:1" cx="541.928" cy="177.113" r="3"/>
<circle clip-path="url(#clip0402)" style="fill:#000000; stroke:none; fill-opacity:1" cx="328.785" cy="127.972" r="4"/>
<circle clip-path="url(#clip0402)" style="fill:#009af9; stroke:none; fill-opacity:1" cx="328.785" cy="127.972" r="3"/>
<circle clip-path="url(#clip0402)" style="fill:#000000; stroke:none; fill-opacity:1" cx="168.928" cy="17.2892" r="4"/>
<circle clip-path="url(#clip0402)" style="fill:#009af9; stroke:none; fill-opacity:1" cx="168.928" cy="17.2892" r="3"/>
<circle clip-path="url(#clip0402)" style="fill:#000000; stroke:none; fill-opacity:1" cx="382.071" cy="109.868" r="4"/>
<circle clip-path="url(#clip0402)" style="fill:#009af9; stroke:none; fill-opacity:1" cx="382.071" cy="109.868" r="3"/>
<circle clip-path="url(#clip0402)" style="fill:#000000; stroke:none; fill-opacity:1" cx="435.357" cy="43.7826" r="4"/>
<circle clip-path="url(#clip0402)" style="fill:#009af9; stroke:none; fill-opacity:1" cx="435.357" cy="43.7826" r="3"/>
<circle clip-path="url(#clip0402)" style="fill:#000000; stroke:none; fill-opacity:1" cx="168.928" cy="208.561" r="4"/>
<circle clip-path="url(#clip0402)" style="fill:#009af9; stroke:none; fill-opacity:1" cx="168.928" cy="208.561" r="3"/>
<circle clip-path="url(#clip0402)" style="fill:#000000; stroke:none; fill-opacity:1" cx="435.357" cy="185.305" r="4"/>
<circle clip-path="url(#clip0402)" style="fill:#009af9; stroke:none; fill-opacity:1" cx="435.357" cy="185.305" r="3"/>
<circle clip-path="url(#clip0402)" style="fill:#000000; stroke:none; fill-opacity:1" cx="541.928" cy="136.547" r="4"/>
<circle clip-path="url(#clip0402)" style="fill:#009af9; stroke:none; fill-opacity:1" cx="541.928" cy="136.547" r="3"/>
<circle clip-path="url(#clip0402)" style="fill:#000000; stroke:none; fill-opacity:1" cx="222.214" cy="142.099" r="4"/>
<circle clip-path="url(#clip0402)" style="fill:#009af9; stroke:none; fill-opacity:1" cx="222.214" cy="142.099" r="3"/>
<circle clip-path="url(#clip0402)" style="fill:#000000; stroke:none; fill-opacity:1" cx="541.928" cy="12.1605" r="4"/>
<circle clip-path="url(#clip0402)" style="fill:#009af9; stroke:none; fill-opacity:1" cx="541.928" cy="12.1605" r="3"/>
<circle clip-path="url(#clip0402)" style="fill:#000000; stroke:none; fill-opacity:1" cx="328.785" cy="34.8197" r="4"/>
<circle clip-path="url(#clip0402)" style="fill:#009af9; stroke:none; fill-opacity:1" cx="328.785" cy="34.8197" r="3"/>
<circle clip-path="url(#clip0402)" style="fill:#000000; stroke:none; fill-opacity:1" cx="382.071" cy="12.0034" r="4"/>
<circle clip-path="url(#clip0402)" style="fill:#009af9; stroke:none; fill-opacity:1" cx="382.071" cy="12.0034" r="3"/>
<circle clip-path="url(#clip0402)" style="fill:#000000; stroke:none; fill-opacity:1" cx="328.785" cy="122.036" r="4"/>
<circle clip-path="url(#clip0402)" style="fill:#009af9; stroke:none; fill-opacity:1" cx="328.785" cy="122.036" r="3"/>
<circle clip-path="url(#clip0402)" style="fill:#000000; stroke:none; fill-opacity:1" cx="275.5" cy="42.363" r="4"/>
<circle clip-path="url(#clip0402)" style="fill:#009af9; stroke:none; fill-opacity:1" cx="275.5" cy="42.363" r="3"/>
<circle clip-path="url(#clip0402)" style="fill:#000000; stroke:none; fill-opacity:1" cx="168.928" cy="13.6552" r="4"/>
<circle clip-path="url(#clip0402)" style="fill:#009af9; stroke:none; fill-opacity:1" cx="168.928" cy="13.6552" r="3"/>
<circle clip-path="url(#clip0402)" style="fill:#000000; stroke:none; fill-opacity:1" cx="541.928" cy="132.865" r="4"/>
<circle clip-path="url(#clip0402)" style="fill:#009af9; stroke:none; fill-opacity:1" cx="541.928" cy="132.865" r="3"/>
<circle clip-path="url(#clip0402)" style="fill:#000000; stroke:none; fill-opacity:1" cx="435.357" cy="32.3316" r="4"/>
<circle clip-path="url(#clip0402)" style="fill:#009af9; stroke:none; fill-opacity:1" cx="435.357" cy="32.3316" r="3"/>
<circle clip-path="url(#clip0402)" style="fill:#000000; stroke:none; fill-opacity:1" cx="62.3573" cy="142.765" r="4"/>
<circle clip-path="url(#clip0402)" style="fill:#009af9; stroke:none; fill-opacity:1" cx="62.3573" cy="142.765" r="3"/>
<circle clip-path="url(#clip0402)" style="fill:#000000; stroke:none; fill-opacity:1" cx="222.214" cy="22.0236" r="4"/>
<circle clip-path="url(#clip0402)" style="fill:#009af9; stroke:none; fill-opacity:1" cx="222.214" cy="22.0236" r="3"/>
<circle clip-path="url(#clip0402)" style="fill:#000000; stroke:none; fill-opacity:1" cx="435.357" cy="179.566" r="4"/>
<circle clip-path="url(#clip0402)" style="fill:#009af9; stroke:none; fill-opacity:1" cx="435.357" cy="179.566" r="3"/>
<circle clip-path="url(#clip0402)" style="fill:#000000; stroke:none; fill-opacity:1" cx="382.071" cy="31.9566" r="4"/>
<circle clip-path="url(#clip0402)" style="fill:#009af9; stroke:none; fill-opacity:1" cx="382.071" cy="31.9566" r="3"/>
<circle clip-path="url(#clip0402)" style="fill:#000000; stroke:none; fill-opacity:1" cx="382.071" cy="65.4255" r="4"/>
<circle clip-path="url(#clip0402)" style="fill:#009af9; stroke:none; fill-opacity:1" cx="382.071" cy="65.4255" r="3"/>
<circle clip-path="url(#clip0402)" style="fill:#000000; stroke:none; fill-opacity:1" cx="328.785" cy="143.162" r="4"/>
<circle clip-path="url(#clip0402)" style="fill:#009af9; stroke:none; fill-opacity:1" cx="328.785" cy="143.162" r="3"/>
<circle clip-path="url(#clip0402)" style="fill:#000000; stroke:none; fill-opacity:1" cx="62.3573" cy="27.3915" r="4"/>
<circle clip-path="url(#clip0402)" style="fill:#009af9; stroke:none; fill-opacity:1" cx="62.3573" cy="27.3915" r="3"/>
<circle clip-path="url(#clip0402)" style="fill:#000000; stroke:none; fill-opacity:1" cx="222.214" cy="138.817" r="4"/>
<circle clip-path="url(#clip0402)" style="fill:#009af9; stroke:none; fill-opacity:1" cx="222.214" cy="138.817" r="3"/>
<circle clip-path="url(#clip0402)" style="fill:#000000; stroke:none; fill-opacity:1" cx="222.214" cy="89.3588" r="4"/>
<circle clip-path="url(#clip0402)" style="fill:#009af9; stroke:none; fill-opacity:1" cx="222.214" cy="89.3588" r="3"/>
<circle clip-path="url(#clip0402)" style="fill:#000000; stroke:none; fill-opacity:1" cx="275.5" cy="39.3861" r="4"/>
<circle clip-path="url(#clip0402)" style="fill:#009af9; stroke:none; fill-opacity:1" cx="275.5" cy="39.3861" r="3"/>
<circle clip-path="url(#clip0402)" style="fill:#000000; stroke:none; fill-opacity:1" cx="435.357" cy="88.2701" r="4"/>
<circle clip-path="url(#clip0402)" style="fill:#009af9; stroke:none; fill-opacity:1" cx="435.357" cy="88.2701" r="3"/>
<circle clip-path="url(#clip0402)" style="fill:#000000; stroke:none; fill-opacity:1" cx="222.214" cy="12.9016" r="4"/>
<circle clip-path="url(#clip0402)" style="fill:#009af9; stroke:none; fill-opacity:1" cx="222.214" cy="12.9016" r="3"/>
<circle clip-path="url(#clip0402)" style="fill:#000000; stroke:none; fill-opacity:1" cx="62.3573" cy="115.635" r="4"/>
<circle clip-path="url(#clip0402)" style="fill:#009af9; stroke:none; fill-opacity:1" cx="62.3573" cy="115.635" r="3"/>
<circle clip-path="url(#clip0402)" style="fill:#000000; stroke:none; fill-opacity:1" cx="62.3573" cy="58.3047" r="4"/>
<circle clip-path="url(#clip0402)" style="fill:#009af9; stroke:none; fill-opacity:1" cx="62.3573" cy="58.3047" r="3"/>
<circle clip-path="url(#clip0402)" style="fill:#000000; stroke:none; fill-opacity:1" cx="541.928" cy="12.2249" r="4"/>
<circle clip-path="url(#clip0402)" style="fill:#009af9; stroke:none; fill-opacity:1" cx="541.928" cy="12.2249" r="3"/>
<circle clip-path="url(#clip0402)" style="fill:#000000; stroke:none; fill-opacity:1" cx="115.643" cy="54.4161" r="4"/>
<circle clip-path="url(#clip0402)" style="fill:#009af9; stroke:none; fill-opacity:1" cx="115.643" cy="54.4161" r="3"/>
<circle clip-path="url(#clip0402)" style="fill:#000000; stroke:none; fill-opacity:1" cx="382.071" cy="174.474" r="4"/>
<circle clip-path="url(#clip0402)" style="fill:#009af9; stroke:none; fill-opacity:1" cx="382.071" cy="174.474" r="3"/>
<circle clip-path="url(#clip0402)" style="fill:#000000; stroke:none; fill-opacity:1" cx="222.214" cy="17.074" r="4"/>
<circle clip-path="url(#clip0402)" style="fill:#009af9; stroke:none; fill-opacity:1" cx="222.214" cy="17.074" r="3"/>
<circle clip-path="url(#clip0402)" style="fill:#000000; stroke:none; fill-opacity:1" cx="541.928" cy="15.9976" r="4"/>
<circle clip-path="url(#clip0402)" style="fill:#009af9; stroke:none; fill-opacity:1" cx="541.928" cy="15.9976" r="3"/>
<circle clip-path="url(#clip0402)" style="fill:#000000; stroke:none; fill-opacity:1" cx="62.3573" cy="142.081" r="4"/>
<circle clip-path="url(#clip0402)" style="fill:#009af9; stroke:none; fill-opacity:1" cx="62.3573" cy="142.081" r="3"/>
<circle clip-path="url(#clip0402)" style="fill:#000000; stroke:none; fill-opacity:1" cx="275.5" cy="33.9463" r="4"/>
<circle clip-path="url(#clip0402)" style="fill:#009af9; stroke:none; fill-opacity:1" cx="275.5" cy="33.9463" r="3"/>
<circle clip-path="url(#clip0402)" style="fill:#000000; stroke:none; fill-opacity:1" cx="222.214" cy="11.8164" r="4"/>
<circle clip-path="url(#clip0402)" style="fill:#009af9; stroke:none; fill-opacity:1" cx="222.214" cy="11.8164" r="3"/>
<circle clip-path="url(#clip0402)" style="fill:#000000; stroke:none; fill-opacity:1" cx="115.643" cy="16.0443" r="4"/>
<circle clip-path="url(#clip0402)" style="fill:#009af9; stroke:none; fill-opacity:1" cx="115.643" cy="16.0443" r="3"/>
<circle clip-path="url(#clip0402)" style="fill:#000000; stroke:none; fill-opacity:1" cx="541.928" cy="96.2881" r="4"/>
<circle clip-path="url(#clip0402)" style="fill:#009af9; stroke:none; fill-opacity:1" cx="541.928" cy="96.2881" r="3"/>
<circle clip-path="url(#clip0402)" style="fill:#000000; stroke:none; fill-opacity:1" cx="541.928" cy="33.8657" r="4"/>
<circle clip-path="url(#clip0402)" style="fill:#009af9; stroke:none; fill-opacity:1" cx="541.928" cy="33.8657" r="3"/>
<circle clip-path="url(#clip0402)" style="fill:#000000; stroke:none; fill-opacity:1" cx="541.928" cy="149.856" r="4"/>
<circle clip-path="url(#clip0402)" style="fill:#009af9; stroke:none; fill-opacity:1" cx="541.928" cy="149.856" r="3"/>
<circle clip-path="url(#clip0402)" style="fill:#000000; stroke:none; fill-opacity:1" cx="62.3573" cy="17.0155" r="4"/>
<circle clip-path="url(#clip0402)" style="fill:#009af9; stroke:none; fill-opacity:1" cx="62.3573" cy="17.0155" r="3"/>
<circle clip-path="url(#clip0402)" style="fill:#000000; stroke:none; fill-opacity:1" cx="168.928" cy="92.264" r="4"/>
<circle clip-path="url(#clip0402)" style="fill:#009af9; stroke:none; fill-opacity:1" cx="168.928" cy="92.264" r="3"/>
<circle clip-path="url(#clip0402)" style="fill:#000000; stroke:none; fill-opacity:1" cx="168.928" cy="12.4469" r="4"/>
<circle clip-path="url(#clip0402)" style="fill:#009af9; stroke:none; fill-opacity:1" cx="168.928" cy="12.4469" r="3"/>
<circle clip-path="url(#clip0402)" style="fill:#000000; stroke:none; fill-opacity:1" cx="328.785" cy="29.209" r="4"/>
<circle clip-path="url(#clip0402)" style="fill:#009af9; stroke:none; fill-opacity:1" cx="328.785" cy="29.209" r="3"/>
<circle clip-path="url(#clip0402)" style="fill:#000000; stroke:none; fill-opacity:1" cx="222.214" cy="55.9413" r="4"/>
<circle clip-path="url(#clip0402)" style="fill:#009af9; stroke:none; fill-opacity:1" cx="222.214" cy="55.9413" r="3"/>
<circle clip-path="url(#clip0402)" style="fill:#000000; stroke:none; fill-opacity:1" cx="168.928" cy="50.4078" r="4"/>
<circle clip-path="url(#clip0402)" style="fill:#009af9; stroke:none; fill-opacity:1" cx="168.928" cy="50.4078" r="3"/>
<circle clip-path="url(#clip0402)" style="fill:#000000; stroke:none; fill-opacity:1" cx="541.928" cy="36.4134" r="4"/>
<circle clip-path="url(#clip0402)" style="fill:#009af9; stroke:none; fill-opacity:1" cx="541.928" cy="36.4134" r="3"/>
<circle clip-path="url(#clip0402)" style="fill:#000000; stroke:none; fill-opacity:1" cx="62.3573" cy="12.1026" r="4"/>
<circle clip-path="url(#clip0402)" style="fill:#009af9; stroke:none; fill-opacity:1" cx="62.3573" cy="12.1026" r="3"/>
<circle clip-path="url(#clip0402)" style="fill:#000000; stroke:none; fill-opacity:1" cx="541.928" cy="67.0534" r="4"/>
<circle clip-path="url(#clip0402)" style="fill:#009af9; stroke:none; fill-opacity:1" cx="541.928" cy="67.0534" r="3"/>
<circle clip-path="url(#clip0402)" style="fill:#000000; stroke:none; fill-opacity:1" cx="62.3573" cy="132.126" r="4"/>
<circle clip-path="url(#clip0402)" style="fill:#009af9; stroke:none; fill-opacity:1" cx="62.3573" cy="132.126" r="3"/>
<circle clip-path="url(#clip0402)" style="fill:#000000; stroke:none; fill-opacity:1" cx="222.214" cy="75.5472" r="4"/>
<circle clip-path="url(#clip0402)" style="fill:#009af9; stroke:none; fill-opacity:1" cx="222.214" cy="75.5472" r="3"/>
<circle clip-path="url(#clip0402)" style="fill:#000000; stroke:none; fill-opacity:1" cx="541.928" cy="109.66" r="4"/>
<circle clip-path="url(#clip0402)" style="fill:#009af9; stroke:none; fill-opacity:1" cx="541.928" cy="109.66" r="3"/>
<circle clip-path="url(#clip0402)" style="fill:#000000; stroke:none; fill-opacity:1" cx="168.928" cy="38.0403" r="4"/>
<circle clip-path="url(#clip0402)" style="fill:#009af9; stroke:none; fill-opacity:1" cx="168.928" cy="38.0403" r="3"/>
<circle clip-path="url(#clip0402)" style="fill:#000000; stroke:none; fill-opacity:1" cx="382.071" cy="139.845" r="4"/>
<circle clip-path="url(#clip0402)" style="fill:#009af9; stroke:none; fill-opacity:1" cx="382.071" cy="139.845" r="3"/>
<circle clip-path="url(#clip0402)" style="fill:#000000; stroke:none; fill-opacity:1" cx="488.642" cy="27.1131" r="4"/>
<circle clip-path="url(#clip0402)" style="fill:#009af9; stroke:none; fill-opacity:1" cx="488.642" cy="27.1131" r="3"/>
<circle clip-path="url(#clip0402)" style="fill:#000000; stroke:none; fill-opacity:1" cx="488.642" cy="105.691" r="4"/>
<circle clip-path="url(#clip0402)" style="fill:#009af9; stroke:none; fill-opacity:1" cx="488.642" cy="105.691" r="3"/>
<circle clip-path="url(#clip0402)" style="fill:#000000; stroke:none; fill-opacity:1" cx="222.214" cy="13.7829" r="4"/>
<circle clip-path="url(#clip0402)" style="fill:#009af9; stroke:none; fill-opacity:1" cx="222.214" cy="13.7829" r="3"/>
<circle clip-path="url(#clip0402)" style="fill:#000000; stroke:none; fill-opacity:1" cx="382.071" cy="56.5692" r="4"/>
<circle clip-path="url(#clip0402)" style="fill:#009af9; stroke:none; fill-opacity:1" cx="382.071" cy="56.5692" r="3"/>
<circle clip-path="url(#clip0402)" style="fill:#000000; stroke:none; fill-opacity:1" cx="222.214" cy="158.077" r="4"/>
<circle clip-path="url(#clip0402)" style="fill:#009af9; stroke:none; fill-opacity:1" cx="222.214" cy="158.077" r="3"/>
<circle clip-path="url(#clip0402)" style="fill:#000000; stroke:none; fill-opacity:1" cx="435.357" cy="47.3477" r="4"/>
<circle clip-path="url(#clip0402)" style="fill:#009af9; stroke:none; fill-opacity:1" cx="435.357" cy="47.3477" r="3"/>
<circle clip-path="url(#clip0402)" style="fill:#000000; stroke:none; fill-opacity:1" cx="435.357" cy="32.2451" r="4"/>
<circle clip-path="url(#clip0402)" style="fill:#009af9; stroke:none; fill-opacity:1" cx="435.357" cy="32.2451" r="3"/>
<circle clip-path="url(#clip0402)" style="fill:#000000; stroke:none; fill-opacity:1" cx="488.642" cy="41.8775" r="4"/>
<circle clip-path="url(#clip0402)" style="fill:#009af9; stroke:none; fill-opacity:1" cx="488.642" cy="41.8775" r="3"/>
<circle clip-path="url(#clip0402)" style="fill:#000000; stroke:none; fill-opacity:1" cx="435.357" cy="17.4202" r="4"/>
<circle clip-path="url(#clip0402)" style="fill:#009af9; stroke:none; fill-opacity:1" cx="435.357" cy="17.4202" r="3"/>
<circle clip-path="url(#clip0402)" style="fill:#000000; stroke:none; fill-opacity:1" cx="541.928" cy="133.98" r="4"/>
<circle clip-path="url(#clip0402)" style="fill:#009af9; stroke:none; fill-opacity:1" cx="541.928" cy="133.98" r="3"/>
<circle clip-path="url(#clip0402)" style="fill:#000000; stroke:none; fill-opacity:1" cx="328.785" cy="168.624" r="4"/>
<circle clip-path="url(#clip0402)" style="fill:#009af9; stroke:none; fill-opacity:1" cx="328.785" cy="168.624" r="3"/>
<circle clip-path="url(#clip0402)" style="fill:#000000; stroke:none; fill-opacity:1" cx="541.928" cy="117.257" r="4"/>
<circle clip-path="url(#clip0402)" style="fill:#009af9; stroke:none; fill-opacity:1" cx="541.928" cy="117.257" r="3"/>
<circle clip-path="url(#clip0402)" style="fill:#000000; stroke:none; fill-opacity:1" cx="328.785" cy="11.857" r="4"/>
<circle clip-path="url(#clip0402)" style="fill:#009af9; stroke:none; fill-opacity:1" cx="328.785" cy="11.857" r="3"/>
<circle clip-path="url(#clip0402)" style="fill:#000000; stroke:none; fill-opacity:1" cx="62.3573" cy="12.9677" r="4"/>
<circle clip-path="url(#clip0402)" style="fill:#009af9; stroke:none; fill-opacity:1" cx="62.3573" cy="12.9677" r="3"/>
<circle clip-path="url(#clip0402)" style="fill:#000000; stroke:none; fill-opacity:1" cx="62.3573" cy="29.2915" r="4"/>
<circle clip-path="url(#clip0402)" style="fill:#009af9; stroke:none; fill-opacity:1" cx="62.3573" cy="29.2915" r="3"/>
<circle clip-path="url(#clip0402)" style="fill:#000000; stroke:none; fill-opacity:1" cx="328.785" cy="60.2744" r="4"/>
<circle clip-path="url(#clip0402)" style="fill:#009af9; stroke:none; fill-opacity:1" cx="328.785" cy="60.2744" r="3"/>
<circle clip-path="url(#clip0402)" style="fill:#000000; stroke:none; fill-opacity:1" cx="541.928" cy="56.8589" r="4"/>
<circle clip-path="url(#clip0402)" style="fill:#009af9; stroke:none; fill-opacity:1" cx="541.928" cy="56.8589" r="3"/>
<circle clip-path="url(#clip0402)" style="fill:#000000; stroke:none; fill-opacity:1" cx="435.357" cy="219.884" r="4"/>
<circle clip-path="url(#clip0402)" style="fill:#009af9; stroke:none; fill-opacity:1" cx="435.357" cy="219.884" r="3"/>
<circle clip-path="url(#clip0402)" style="fill:#000000; stroke:none; fill-opacity:1" cx="382.071" cy="14.3504" r="4"/>
<circle clip-path="url(#clip0402)" style="fill:#009af9; stroke:none; fill-opacity:1" cx="382.071" cy="14.3504" r="3"/>
<circle clip-path="url(#clip0402)" style="fill:#000000; stroke:none; fill-opacity:1" cx="488.642" cy="159.88" r="4"/>
<circle clip-path="url(#clip0402)" style="fill:#009af9; stroke:none; fill-opacity:1" cx="488.642" cy="159.88" r="3"/>
<circle clip-path="url(#clip0402)" style="fill:#000000; stroke:none; fill-opacity:1" cx="222.214" cy="11.9495" r="4"/>
<circle clip-path="url(#clip0402)" style="fill:#009af9; stroke:none; fill-opacity:1" cx="222.214" cy="11.9495" r="3"/>
<circle clip-path="url(#clip0402)" style="fill:#000000; stroke:none; fill-opacity:1" cx="488.642" cy="92.1352" r="4"/>
<circle clip-path="url(#clip0402)" style="fill:#009af9; stroke:none; fill-opacity:1" cx="488.642" cy="92.1352" r="3"/>
<circle clip-path="url(#clip0402)" style="fill:#000000; stroke:none; fill-opacity:1" cx="222.214" cy="197.152" r="4"/>
<circle clip-path="url(#clip0402)" style="fill:#009af9; stroke:none; fill-opacity:1" cx="222.214" cy="197.152" r="3"/>
<circle clip-path="url(#clip0402)" style="fill:#000000; stroke:none; fill-opacity:1" cx="222.214" cy="85.5527" r="4"/>
<circle clip-path="url(#clip0402)" style="fill:#009af9; stroke:none; fill-opacity:1" cx="222.214" cy="85.5527" r="3"/>
<circle clip-path="url(#clip0402)" style="fill:#000000; stroke:none; fill-opacity:1" cx="222.214" cy="157.904" r="4"/>
<circle clip-path="url(#clip0402)" style="fill:#009af9; stroke:none; fill-opacity:1" cx="222.214" cy="157.904" r="3"/>
<circle clip-path="url(#clip0402)" style="fill:#000000; stroke:none; fill-opacity:1" cx="222.214" cy="40.3387" r="4"/>
<circle clip-path="url(#clip0402)" style="fill:#009af9; stroke:none; fill-opacity:1" cx="222.214" cy="40.3387" r="3"/>
<circle clip-path="url(#clip0402)" style="fill:#000000; stroke:none; fill-opacity:1" cx="222.214" cy="72.3037" r="4"/>
<circle clip-path="url(#clip0402)" style="fill:#009af9; stroke:none; fill-opacity:1" cx="222.214" cy="72.3037" r="3"/>
<circle clip-path="url(#clip0402)" style="fill:#000000; stroke:none; fill-opacity:1" cx="488.642" cy="108.34" r="4"/>
<circle clip-path="url(#clip0402)" style="fill:#009af9; stroke:none; fill-opacity:1" cx="488.642" cy="108.34" r="3"/>
<circle clip-path="url(#clip0402)" style="fill:#000000; stroke:none; fill-opacity:1" cx="435.357" cy="51.9002" r="4"/>
<circle clip-path="url(#clip0402)" style="fill:#009af9; stroke:none; fill-opacity:1" cx="435.357" cy="51.9002" r="3"/>
<circle clip-path="url(#clip0402)" style="fill:#000000; stroke:none; fill-opacity:1" cx="541.928" cy="19.6352" r="4"/>
<circle clip-path="url(#clip0402)" style="fill:#009af9; stroke:none; fill-opacity:1" cx="541.928" cy="19.6352" r="3"/>
<circle clip-path="url(#clip0402)" style="fill:#000000; stroke:none; fill-opacity:1" cx="328.785" cy="69.3847" r="4"/>
<circle clip-path="url(#clip0402)" style="fill:#009af9; stroke:none; fill-opacity:1" cx="328.785" cy="69.3847" r="3"/>
<circle clip-path="url(#clip0402)" style="fill:#000000; stroke:none; fill-opacity:1" cx="435.357" cy="12.0459" r="4"/>
<circle clip-path="url(#clip0402)" style="fill:#009af9; stroke:none; fill-opacity:1" cx="435.357" cy="12.0459" r="3"/>
<circle clip-path="url(#clip0402)" style="fill:#000000; stroke:none; fill-opacity:1" cx="328.785" cy="43.7116" r="4"/>
<circle clip-path="url(#clip0402)" style="fill:#009af9; stroke:none; fill-opacity:1" cx="328.785" cy="43.7116" r="3"/>
<circle clip-path="url(#clip0402)" style="fill:#000000; stroke:none; fill-opacity:1" cx="435.357" cy="32.2915" r="4"/>
<circle clip-path="url(#clip0402)" style="fill:#009af9; stroke:none; fill-opacity:1" cx="435.357" cy="32.2915" r="3"/>
<circle clip-path="url(#clip0402)" style="fill:#000000; stroke:none; fill-opacity:1" cx="382.071" cy="12.4497" r="4"/>
<circle clip-path="url(#clip0402)" style="fill:#009af9; stroke:none; fill-opacity:1" cx="382.071" cy="12.4497" r="3"/>
<circle clip-path="url(#clip0402)" style="fill:#000000; stroke:none; fill-opacity:1" cx="222.214" cy="50.5699" r="4"/>
<circle clip-path="url(#clip0402)" style="fill:#009af9; stroke:none; fill-opacity:1" cx="222.214" cy="50.5699" r="3"/>
<circle clip-path="url(#clip0402)" style="fill:#000000; stroke:none; fill-opacity:1" cx="488.642" cy="106.297" r="4"/>
<circle clip-path="url(#clip0402)" style="fill:#009af9; stroke:none; fill-opacity:1" cx="488.642" cy="106.297" r="3"/>
<circle clip-path="url(#clip0402)" style="fill:#000000; stroke:none; fill-opacity:1" cx="328.785" cy="91.1649" r="4"/>
<circle clip-path="url(#clip0402)" style="fill:#009af9; stroke:none; fill-opacity:1" cx="328.785" cy="91.1649" r="3"/>
<circle clip-path="url(#clip0402)" style="fill:#000000; stroke:none; fill-opacity:1" cx="168.928" cy="39.9089" r="4"/>
<circle clip-path="url(#clip0402)" style="fill:#009af9; stroke:none; fill-opacity:1" cx="168.928" cy="39.9089" r="3"/>
<circle clip-path="url(#clip0402)" style="fill:#000000; stroke:none; fill-opacity:1" cx="168.928" cy="78.9459" r="4"/>
<circle clip-path="url(#clip0402)" style="fill:#009af9; stroke:none; fill-opacity:1" cx="168.928" cy="78.9459" r="3"/>
<circle clip-path="url(#clip0402)" style="fill:#000000; stroke:none; fill-opacity:1" cx="488.642" cy="35.7802" r="4"/>
<circle clip-path="url(#clip0402)" style="fill:#009af9; stroke:none; fill-opacity:1" cx="488.642" cy="35.7802" r="3"/>
<circle clip-path="url(#clip0402)" style="fill:#000000; stroke:none; fill-opacity:1" cx="435.357" cy="84.0582" r="4"/>
<circle clip-path="url(#clip0402)" style="fill:#009af9; stroke:none; fill-opacity:1" cx="435.357" cy="84.0582" r="3"/>
<circle clip-path="url(#clip0402)" style="fill:#000000; stroke:none; fill-opacity:1" cx="435.357" cy="42.3323" r="4"/>
<circle clip-path="url(#clip0402)" style="fill:#009af9; stroke:none; fill-opacity:1" cx="435.357" cy="42.3323" r="3"/>
<circle clip-path="url(#clip0402)" style="fill:#000000; stroke:none; fill-opacity:1" cx="382.071" cy="11.9362" r="4"/>
<circle clip-path="url(#clip0402)" style="fill:#009af9; stroke:none; fill-opacity:1" cx="382.071" cy="11.9362" r="3"/>
<circle clip-path="url(#clip0402)" style="fill:#000000; stroke:none; fill-opacity:1" cx="62.3573" cy="11.8596" r="4"/>
<circle clip-path="url(#clip0402)" style="fill:#009af9; stroke:none; fill-opacity:1" cx="62.3573" cy="11.8596" r="3"/>
<circle clip-path="url(#clip0402)" style="fill:#000000; stroke:none; fill-opacity:1" cx="541.928" cy="100.771" r="4"/>
<circle clip-path="url(#clip0402)" style="fill:#009af9; stroke:none; fill-opacity:1" cx="541.928" cy="100.771" r="3"/>
<circle clip-path="url(#clip0402)" style="fill:#000000; stroke:none; fill-opacity:1" cx="541.928" cy="16.8283" r="4"/>
<circle clip-path="url(#clip0402)" style="fill:#009af9; stroke:none; fill-opacity:1" cx="541.928" cy="16.8283" r="3"/>
<polygon clip-path="url(#clip0400)" points="
468.919,61.491 539.035,61.491 539.035,31.251 468.919,31.251 
  " fill="#ffffff" fill-opacity="1"/>
<polyline clip-path="url(#clip0400)" style="stroke:#000000; stroke-width:1; stroke-opacity:1; fill:none" points="
  468.919,61.491 539.035,61.491 539.035,31.251 468.919,31.251 468.919,61.491 
  "/>
<circle clip-path="url(#clip0400)" style="fill:#000000; stroke:none; fill-opacity:1" cx="494.839" cy="46.371" r="6"/>
<circle clip-path="url(#clip0400)" style="fill:#009af9; stroke:none; fill-opacity:1" cx="494.839" cy="46.371" r="5"/>
<g clip-path="url(#clip0400)">
<text style="fill:#000000; fill-opacity:1; font-family:Arial,Helvetica Neue,Helvetica,sans-serif; font-size:12; text-anchor:start;" transform="rotate(0, 514.999, 50.871)" x="514.999" y="50.871">y1</text>
</g>
</svg>
